<svg width="107" height="31" viewBox="0 0 107 31" fill="none" xmlns="http://www.w3.org/2000/svg">
<g id="Group 20">
<path id="Primary" d="M51.3312 10.7717L42.9813 17.9331C43.0778 17.9874 43.1743 18.0537 43.2709 18.1141C44.3568 18.8622 45.6902 19.3388 46.8425 19.3388C48.025 19.3388 49.304 18.8742 50.4141 18.1141C51.7474 17.1789 53.5272 17.1789 54.8605 18.1141C55.8922 18.826 57.1531 19.3388 58.4322 19.3388C59.0415 19.3388 59.7052 19.2061 60.3567 18.9647C60.1637 11.6646 54.1848 5.80041 46.8365 5.80041L42.9753 5.80041C41.9074 5.80041 41.0446 6.66315 41.0446 7.73102C41.0446 8.79888 41.9074 9.66162 42.9752 9.66162L46.8365 9.66162C48.4594 9.66162 49.9918 10.0598 51.3312 10.7717ZM60.3507 9.66162C60.3507 10.6857 60.7575 11.6678 61.4816 12.3919C62.2057 13.116 63.1879 13.5228 64.2119 13.5228C65.236 13.5228 66.2181 13.116 66.9422 12.3919C67.6663 11.6678 68.0731 10.6857 68.0731 9.66162C68.0731 8.63757 67.6663 7.65545 66.9422 6.93134C66.2181 6.20722 65.236 5.80041 64.2119 5.80041C63.1879 5.80041 62.2057 6.20722 61.4816 6.93134C60.7575 7.65545 60.3507 8.63757 60.3507 9.66162ZM51.5121 19.6706C50.1547 20.6057 48.4956 21.2453 46.8365 21.2453C45.2135 21.2453 43.4941 20.5937 42.1668 19.6706C41.4489 19.1578 40.4715 19.2 39.8018 19.7732C38.933 20.4911 37.841 21.0401 36.749 21.2935C35.7113 21.5348 35.0658 22.5725 35.3071 23.6102C35.5485 24.6479 36.5862 25.2935 37.6239 25.0522C39.102 24.7083 40.3327 24.0567 41.1351 23.5439C42.8848 24.485 44.8455 25.1065 46.8365 25.1065C48.761 25.1065 50.4925 24.5092 51.6871 23.9662C52.037 23.8033 52.3568 23.6464 52.6283 23.5016C52.8998 23.6464 53.2135 23.8093 53.5694 23.9662C54.764 24.5092 56.4955 25.1065 58.4201 25.1065C60.411 25.1065 62.3718 24.4851 64.1214 23.5499C64.9299 24.0567 66.1546 24.7143 67.6327 25.0582C68.6704 25.2995 69.7081 24.654 69.9494 23.6163C70.1908 22.5786 69.5452 21.5409 68.5075 21.2996C67.4155 21.0462 66.3235 20.4971 65.4547 19.7792C64.7851 19.2121 63.8077 19.1699 63.0897 19.6766C61.7564 20.5937 60.043 21.2453 58.4201 21.2453C56.761 21.2453 55.1019 20.6057 53.7444 19.6706C53.0747 19.194 52.1818 19.194 51.5121 19.6706Z" fill="#0F0F0F"/>
<path id="Primary_2" d="M19.3061 2.89591C19.3061 2.12787 19.0009 1.39128 18.4579 0.848192C17.9148 0.305104 17.1782 0 16.4101 0C15.6421 0 14.9055 0.305104 14.3624 0.848192C13.8193 1.39128 13.5142 2.12787 13.5142 2.89591C13.5142 3.66395 13.8193 4.40054 14.3624 4.94362C14.9055 5.48671 15.6421 5.79182 16.4101 5.79182C17.1782 5.79182 17.9148 5.48671 18.4579 4.94362C19.0009 4.40054 19.3061 3.66395 19.3061 2.89591ZM7.58366 10.5882C8.18094 9.99088 8.99541 9.65303 9.84609 9.65303C9.96071 9.65303 10.0753 9.65906 10.1839 9.67113L8.3016 15.3242C7.74052 17.0135 8.40416 18.8717 9.91848 19.8189L15.1191 23.0707L13.5866 28.4282C13.291 29.4538 13.8883 30.5217 14.9139 30.8173C15.9396 31.1129 17.0074 30.5156 17.303 29.49L19.0346 23.4327C19.3905 22.1899 18.8777 20.8626 17.7857 20.1809L14.3589 18.0391L16.2231 13.0678L16.5308 13.8099C17.4358 15.9697 19.5413 17.3754 21.8822 17.3754H23.1673C24.2351 17.3754 25.0979 16.5127 25.0979 15.4448C25.0979 14.377 24.2351 13.5142 23.1673 13.5142H21.8822C21.1039 13.5142 20.3981 13.0437 20.1024 12.3257L19.7223 11.4207C18.8415 9.3031 17.0617 7.68622 14.8657 7.01051L11.9275 6.10554C11.2578 5.90041 10.558 5.79182 9.85212 5.79182C7.98185 5.79182 6.18397 6.53389 4.86271 7.86118L3.46302 9.25484C2.70888 10.009 2.70888 11.2337 3.46302 11.9879C4.21717 12.742 5.44189 12.742 6.19604 11.9879L7.58969 10.5942L7.58366 10.5882ZM5.50222 21.2367H1.93061C0.862739 21.2367 0 22.0994 0 23.1673C0 24.2351 0.862739 25.0979 1.93061 25.0979H6.12967C7.27597 25.0979 8.31367 24.4222 8.77822 23.3784L9.47203 21.8158L8.89888 21.4538C7.84308 20.7962 7.05877 19.837 6.61232 18.745L5.50222 21.2367Z" fill="#0F0F0F"/>
<path id="Primary_3" d="M100.306 2.89591C100.306 2.12787 100.001 1.39128 99.4579 0.848192C98.9148 0.305104 98.1782 0 97.4101 0C96.6421 0 95.9055 0.305104 95.3624 0.848192C94.8193 1.39128 94.5142 2.12787 94.5142 2.89591C94.5142 3.66395 94.8193 4.40054 95.3624 4.94362C95.9055 5.48671 96.6421 5.79182 97.4101 5.79182C98.1782 5.79182 98.9148 5.48671 99.4579 4.94362C100.001 4.40054 100.306 3.66395 100.306 2.89591ZM88.5837 10.5882C89.1809 9.99088 89.9954 9.65303 90.8461 9.65303C90.9607 9.65303 91.0753 9.65906 91.1839 9.67113L89.3016 15.3242C88.7405 17.0135 89.4042 18.8717 90.9185 19.8189L96.1191 23.0707L94.5866 28.4282C94.291 29.4538 94.8883 30.5217 95.9139 30.8173C96.9396 31.1129 98.0074 30.5156 98.303 29.49L100.035 23.4327C100.391 22.1899 99.8777 20.8626 98.7857 20.1809L95.3589 18.0391L97.2231 13.0678L97.5308 13.8099C98.4358 15.9697 100.541 17.3754 102.882 17.3754H104.167C105.235 17.3754 106.098 16.5127 106.098 15.4448C106.098 14.377 105.235 13.5142 104.167 13.5142H102.882C102.104 13.5142 101.398 13.0437 101.102 12.3257L100.722 11.4207C99.8415 9.3031 98.0617 7.68622 95.8657 7.01051L92.9275 6.10554C92.2578 5.90041 91.558 5.79182 90.8521 5.79182C88.9818 5.79182 87.184 6.53389 85.8627 7.86118L84.463 9.25484C83.7089 10.009 83.7089 11.2337 84.463 11.9879C85.2172 12.742 86.4419 12.742 87.196 11.9879L88.5897 10.5942L88.5837 10.5882ZM86.5022 21.2367H82.9306C81.8627 21.2367 81 22.0994 81 23.1673C81 24.2351 81.8627 25.0979 82.9306 25.0979H87.1297C88.276 25.0979 89.3137 24.4222 89.7782 23.3784L90.472 21.8158L89.8989 21.4538C88.8431 20.7962 88.0588 19.837 87.6123 18.745L86.5022 21.2367Z" fill="#0F0F0F"/>
</g>
</svg>
