<svg width="42" height="33" viewBox="0 0 42 33" fill="none" xmlns="http://www.w3.org/2000/svg">
<path id="Primary" d="M26.25 6.1875C27.0854 6.1875 27.8866 5.86155 28.4774 5.28136C29.0681 4.70117 29.4 3.91426 29.4 3.09375C29.4 2.27324 29.0681 1.48633 28.4774 0.906138C27.8866 0.325948 27.0854 0 26.25 0C25.4146 0 24.6134 0.325948 24.0226 0.906138C23.4319 1.48633 23.1 2.27324 23.1 3.09375C23.1 3.91426 23.4319 4.70117 24.0226 5.28136C24.6134 5.86155 25.4146 6.1875 26.25 6.1875ZM28.035 10.3125L23.9794 7.16719C22.8441 6.29062 21.2428 6.27773 20.1009 7.14785L14.6475 11.2857C12.6328 12.8197 12.7772 15.849 14.9297 17.1896L18.9 19.6646V26.8125C18.9 27.9533 19.8384 28.875 21 28.875C22.1616 28.875 23.1 27.9533 23.1 26.8125V18.5625C23.1 17.8729 22.7522 17.2283 22.1681 16.848L19.3594 15.0111L23.3166 11.8852L25.9875 13.9863C26.3616 14.2764 26.8209 14.4375 27.3 14.4375H31.5C32.6616 14.4375 33.6 13.5158 33.6 12.375C33.6 11.2342 32.6616 10.3125 31.5 10.3125H28.035ZM3.675 24.75C3.675 23.5192 4.17281 22.3389 5.05892 21.4686C5.94503 20.5983 7.14685 20.1094 8.4 20.1094C9.65315 20.1094 10.855 20.5983 11.7411 21.4686C12.6272 22.3389 13.125 23.5192 13.125 24.75C13.125 25.9808 12.6272 27.1611 11.7411 28.0314C10.855 28.9017 9.65315 29.3906 8.4 29.3906C7.14685 29.3906 5.94503 28.9017 5.05892 28.0314C4.17281 27.1611 3.675 25.9808 3.675 24.75ZM16.8 24.75C16.8 22.562 15.915 20.4635 14.3397 18.9164C12.7644 17.3692 10.6278 16.5 8.4 16.5C6.17218 16.5 4.03561 17.3692 2.4603 18.9164C0.884998 20.4635 0 22.562 0 24.75C0 26.938 0.884998 29.0365 2.4603 30.5836C4.03561 32.1308 6.17218 33 8.4 33C10.6278 33 12.7644 32.1308 14.3397 30.5836C15.915 29.0365 16.8 26.938 16.8 24.75ZM28.875 24.75C28.875 23.5192 29.3728 22.3389 30.2589 21.4686C31.145 20.5983 32.3469 20.1094 33.6 20.1094C34.8531 20.1094 36.055 20.5983 36.9411 21.4686C37.8272 22.3389 38.325 23.5192 38.325 24.75C38.325 25.9808 37.8272 27.1611 36.9411 28.0314C36.055 28.9017 34.8531 29.3906 33.6 29.3906C32.3469 29.3906 31.145 28.9017 30.2589 28.0314C29.3728 27.1611 28.875 25.9808 28.875 24.75ZM42 24.75C42 22.562 41.115 20.4635 39.5397 18.9164C37.9644 17.3692 35.8278 16.5 33.6 16.5C31.3722 16.5 29.2356 17.3692 27.6603 18.9164C26.085 20.4635 25.2 22.562 25.2 24.75C25.2 26.938 26.085 29.0365 27.6603 30.5836C29.2356 32.1308 31.3722 33 33.6 33C35.8278 33 37.9644 32.1308 39.5397 30.5836C41.115 29.0365 42 26.938 42 24.75Z" fill="#0F0F0F"/>
</svg>
