<svg width="111" height="31" viewBox="0 0 111 31" fill="none" xmlns="http://www.w3.org/2000/svg">
<g id="Group 19">
<path id="Primary" d="M59.7725 5.79182C60.5405 5.79182 61.2771 5.48671 61.8202 4.94362C62.3633 4.40054 62.6684 3.66395 62.6684 2.89591C62.6684 2.12787 62.3633 1.39128 61.8202 0.848192C61.2771 0.305104 60.5405 0 59.7725 0C59.0044 0 58.2678 0.305104 57.7247 0.848192C57.1817 1.39128 56.8765 2.12787 56.8765 2.89591C56.8765 3.66395 57.1817 4.40054 57.7247 4.94362C58.2678 5.48671 59.0044 5.79182 59.7725 5.79182ZM61.4135 9.65303L57.685 6.70885C56.6413 5.88835 55.1692 5.87628 54.1194 6.69075L49.1059 10.564C47.2537 11.9999 47.3864 14.8355 49.3653 16.0904L53.0153 18.4071V25.0979C53.0153 26.1657 53.8781 27.0285 54.9459 27.0285C56.0138 27.0285 56.8765 26.1657 56.8765 25.0979V17.3754C56.8765 16.7299 56.5568 16.1266 56.0198 15.7706L53.4377 14.0512L57.0756 11.1251L59.5311 13.0919C59.875 13.3634 60.2973 13.5142 60.7378 13.5142H64.599C65.6668 13.5142 66.5296 12.6515 66.5296 11.5836C66.5296 10.5158 65.6668 9.65303 64.599 9.65303H61.4135ZM39.0185 23.1673C39.0185 22.0152 39.4761 20.9103 40.2907 20.0957C41.1054 19.2811 42.2102 18.8234 43.3623 18.8234C44.5144 18.8234 45.6193 19.2811 46.4339 20.0957C47.2485 20.9103 47.7062 22.0152 47.7062 23.1673C47.7062 24.3193 47.2485 25.4242 46.4339 26.2388C45.6193 27.0535 44.5144 27.5111 43.3623 27.5111C42.2102 27.5111 41.1054 27.0535 40.2907 26.2388C39.4761 25.4242 39.0185 24.3193 39.0185 23.1673ZM51.0847 23.1673C51.0847 21.1191 50.2711 19.1549 48.8229 17.7067C47.3747 16.2585 45.4104 15.4448 43.3623 15.4448C41.3142 15.4448 39.35 16.2585 37.9017 17.7067C36.4535 19.1549 35.6399 21.1191 35.6399 23.1673C35.6399 25.2154 36.4535 27.1796 37.9017 28.6278C39.35 30.0761 41.3142 30.8897 43.3623 30.8897C45.4104 30.8897 47.3747 30.0761 48.8229 28.6278C50.2711 27.1796 51.0847 25.2154 51.0847 23.1673ZM62.1857 23.1673C62.1857 22.0152 62.6434 20.9103 63.458 20.0957C64.2726 19.2811 65.3775 18.8234 66.5296 18.8234C67.6816 18.8234 68.7865 19.2811 69.6011 20.0957C70.4158 20.9103 70.8734 22.0152 70.8734 23.1673C70.8734 24.3193 70.4158 25.4242 69.6011 26.2388C68.7865 27.0535 67.6816 27.5111 66.5296 27.5111C65.3775 27.5111 64.2726 27.0535 63.458 26.2388C62.6434 25.4242 62.1857 24.3193 62.1857 23.1673ZM74.252 23.1673C74.252 21.1191 73.4384 19.1549 71.9901 17.7067C70.5419 16.2585 68.5777 15.4448 66.5296 15.4448C64.4815 15.4448 62.5172 16.2585 61.069 17.7067C59.6208 19.1549 58.8072 21.1191 58.8072 23.1673C58.8072 25.2154 59.6208 27.1796 61.069 28.6278C62.5172 30.0761 64.4815 30.8897 66.5296 30.8897C68.5777 30.8897 70.5419 30.0761 71.9901 28.6278C73.4384 27.1796 74.252 25.2154 74.252 23.1673Z" fill="#0F0F0F"/>
<path id="Primary_2" d="M19.3061 2.89591C19.3061 2.12787 19.0009 1.39128 18.4579 0.848192C17.9148 0.305104 17.1782 0 16.4101 0C15.6421 0 14.9055 0.305104 14.3624 0.848192C13.8193 1.39128 13.5142 2.12787 13.5142 2.89591C13.5142 3.66395 13.8193 4.40054 14.3624 4.94362C14.9055 5.48671 15.6421 5.79182 16.4101 5.79182C17.1782 5.79182 17.9148 5.48671 18.4579 4.94362C19.0009 4.40054 19.3061 3.66395 19.3061 2.89591ZM7.58366 10.5882C8.18094 9.99088 8.99541 9.65303 9.84609 9.65303C9.96071 9.65303 10.0753 9.65906 10.1839 9.67113L8.3016 15.3242C7.74052 17.0135 8.40416 18.8717 9.91848 19.8189L15.1191 23.0707L13.5866 28.4282C13.291 29.4538 13.8883 30.5217 14.9139 30.8173C15.9396 31.1129 17.0074 30.5156 17.303 29.49L19.0346 23.4327C19.3905 22.1899 18.8777 20.8626 17.7857 20.1809L14.3589 18.0391L16.2231 13.0678L16.5308 13.8099C17.4358 15.9697 19.5413 17.3754 21.8822 17.3754H23.1673C24.2351 17.3754 25.0979 16.5127 25.0979 15.4448C25.0979 14.377 24.2351 13.5142 23.1673 13.5142H21.8822C21.1039 13.5142 20.3981 13.0437 20.1024 12.3257L19.7223 11.4207C18.8415 9.3031 17.0617 7.68622 14.8657 7.01051L11.9275 6.10554C11.2578 5.90041 10.558 5.79182 9.85212 5.79182C7.98185 5.79182 6.18397 6.53389 4.86271 7.86118L3.46302 9.25484C2.70888 10.009 2.70888 11.2337 3.46302 11.9879C4.21717 12.742 5.44189 12.742 6.19604 11.9879L7.58969 10.5942L7.58366 10.5882ZM5.50222 21.2367H1.93061C0.862739 21.2367 0 22.0994 0 23.1673C0 24.2351 0.862739 25.0979 1.93061 25.0979H6.12967C7.27597 25.0979 8.31367 24.4222 8.77822 23.3784L9.47203 21.8158L8.89888 21.4538C7.84308 20.7962 7.05877 19.837 6.61232 18.745L5.50222 21.2367Z" fill="#0F0F0F"/>
<path id="Primary_3" d="M104.306 2.89591C104.306 2.12787 104.001 1.39128 103.458 0.848192C102.915 0.305104 102.178 0 101.41 0C100.642 0 99.9055 0.305104 99.3624 0.848192C98.8193 1.39128 98.5142 2.12787 98.5142 2.89591C98.5142 3.66395 98.8193 4.40054 99.3624 4.94362C99.9055 5.48671 100.642 5.79182 101.41 5.79182C102.178 5.79182 102.915 5.48671 103.458 4.94362C104.001 4.40054 104.306 3.66395 104.306 2.89591ZM92.5837 10.5882C93.1809 9.99088 93.9954 9.65303 94.8461 9.65303C94.9607 9.65303 95.0753 9.65906 95.1839 9.67113L93.3016 15.3242C92.7405 17.0135 93.4042 18.8717 94.9185 19.8189L100.119 23.0707L98.5866 28.4282C98.291 29.4538 98.8883 30.5217 99.9139 30.8173C100.94 31.1129 102.007 30.5156 102.303 29.49L104.035 23.4327C104.391 22.1899 103.878 20.8626 102.786 20.1809L99.3589 18.0391L101.223 13.0678L101.531 13.8099C102.436 15.9697 104.541 17.3754 106.882 17.3754H108.167C109.235 17.3754 110.098 16.5127 110.098 15.4448C110.098 14.377 109.235 13.5142 108.167 13.5142H106.882C106.104 13.5142 105.398 13.0437 105.102 12.3257L104.722 11.4207C103.841 9.3031 102.062 7.68622 99.8657 7.01051L96.9275 6.10554C96.2578 5.90041 95.558 5.79182 94.8521 5.79182C92.9818 5.79182 91.184 6.53389 89.8627 7.86118L88.463 9.25484C87.7089 10.009 87.7089 11.2337 88.463 11.9879C89.2172 12.742 90.4419 12.742 91.196 11.9879L92.5897 10.5942L92.5837 10.5882ZM90.5022 21.2367H86.9306C85.8627 21.2367 85 22.0994 85 23.1673C85 24.2351 85.8627 25.0979 86.9306 25.0979H91.1297C92.276 25.0979 93.3137 24.4222 93.7782 23.3784L94.472 21.8158L93.8989 21.4538C92.8431 20.7962 92.0588 19.837 91.6123 18.745L90.5022 21.2367Z" fill="#0F0F0F"/>
</g>
</svg>
