<svg width="35" height="35" viewBox="0 0 35 35" fill="none" xmlns="http://www.w3.org/2000/svg">
<g id="heart-pulse">
<path id="Primary" d="M16.2688 31.3187L4.975 20.775C4.7125 20.5312 4.4625 20.2687 4.23125 20H9.66875C11.0813 20 12.3562 19.15 12.9 17.8437L13.5562 16.2687L16.6375 23.1125C16.875 23.6437 17.3938 23.9875 17.975 23.9937C18.5562 24 19.0875 23.6812 19.35 23.1625L22 17.8562L22.1063 18.0687C22.7 19.2562 23.9125 20.0062 25.2375 20.0062H31.7687C31.5375 20.275 31.2875 20.5375 31.025 20.7812L19.7313 31.3187C19.2625 31.7562 18.6437 32 18 32C17.3562 32 16.7375 31.7562 16.2688 31.3187ZM33.4813 17H25.2313C25.0438 17 24.8687 16.8937 24.7812 16.725L23.3312 13.8312C23.075 13.325 22.5562 13 21.9875 13C21.4187 13 20.9 13.3187 20.6437 13.8312L18.0562 19.0062L14.8687 11.8875C14.625 11.3437 14.075 10.9937 13.4812 11.0062C12.8875 11.0187 12.35 11.375 12.1187 11.9312L10.1313 16.7C10.0563 16.8875 9.86875 17.0062 9.66875 17.0062H3C2.8375 17.0062 2.6875 17.0312 2.54375 17.075C2.1875 16.075 2 15.0125 2 13.9312V13.5687C2 9.19997 5.15625 5.47497 9.4625 4.75622C12.3125 4.28122 15.2125 5.21247 17.25 7.24997L18 7.99997L18.75 7.24997C20.7875 5.21247 23.6875 4.28122 26.5375 4.75622C30.8438 5.47497 34 9.19997 34 13.5687V13.9312C34 14.9875 33.825 16.025 33.4813 17Z" fill="#F2F2F2"/>
</g>
</svg>
