<svg width="22" height="34" viewBox="0 0 22 34" fill="none" xmlns="http://www.w3.org/2000/svg">
<path id="Primary" d="M10.9992 0C11.8745 0 12.7139 0.335825 13.3328 0.933597C13.9517 1.53137 14.2994 2.34212 14.2994 3.1875C14.2994 4.03288 13.9517 4.84363 13.3328 5.4414C12.7139 6.03918 11.8745 6.375 10.9992 6.375C10.1239 6.375 9.28447 6.03918 8.66556 5.4414C8.04664 4.84363 7.69894 4.03288 7.69894 3.1875C7.69894 2.34212 8.04664 1.53137 8.66556 0.933597C9.28447 0.335825 10.1239 0 10.9992 0ZM6.04881 25.4336C5.09999 25.1945 4.39869 24.3645 4.39869 23.375V19.716L4.08242 20.2207C3.45674 21.2234 2.10227 21.5488 1.06407 20.9445C0.0258641 20.3402 -0.311036 19.032 0.314636 18.0293L4.32306 11.5879C5.35439 9.93437 7.09389 8.83203 9.04654 8.55976C9.32843 8.51992 9.61033 8.49336 9.90598 8.49336H9.98161H10.841H10.9992C11.0954 8.49336 11.1917 8.5 11.2811 8.51328C13.7356 8.70586 15.7777 10.459 16.2383 12.8297L16.6577 14.9879C19.7036 15.559 22 18.1422 22 21.25V23.375C22 24.5504 21.0168 25.5 19.7998 25.5H18.6998H15.9496V31.875C15.9496 33.0504 14.9664 34 13.7494 34C12.5324 34 11.5492 33.0504 11.5492 31.875V25.5H10.9992H10.4491V31.875C10.4491 33.0504 9.46594 34 8.24898 34C7.03201 34 6.04881 33.0504 6.04881 31.875V25.4336Z" fill="#0F0F0F"/>
</svg>
