<svg width="27" height="33" viewBox="0 0 27 33" fill="none" xmlns="http://www.w3.org/2000/svg">
<path id="Primary" d="M20.7692 3.09342C20.7692 2.273 20.441 1.48617 19.8568 0.906043C19.2725 0.325913 18.4801 0 17.6538 0C16.8276 0 16.0352 0.325913 15.4509 0.906043C14.8667 1.48617 14.5385 2.273 14.5385 3.09342C14.5385 3.91385 14.8667 4.70067 15.4509 5.2808C16.0352 5.86093 16.8276 6.18685 17.6538 6.18685C18.4801 6.18685 19.2725 5.86093 19.8568 5.2808C20.441 4.70067 20.7692 3.91385 20.7692 3.09342ZM8.15841 11.3103C8.80096 10.6723 9.67716 10.3114 10.5923 10.3114C10.7156 10.3114 10.8389 10.3179 10.9558 10.3307L8.93077 16.3694C8.32716 18.1739 9.04111 20.1588 10.6702 21.1706L16.2649 24.6443L14.6163 30.3671C14.2983 31.4627 14.9409 32.6034 16.0442 32.9192C17.1476 33.235 18.2964 32.5969 18.6144 31.5014L20.4772 25.0309C20.8601 23.7034 20.3084 22.2855 19.1337 21.5573L15.4471 19.2694L17.4526 13.9591L17.7837 14.7518C18.7572 17.0589 21.0224 18.5605 23.5406 18.5605H24.9231C26.0719 18.5605 27 17.639 27 16.4983C27 15.3576 26.0719 14.436 24.9231 14.436H23.5406C22.7034 14.436 21.944 13.9333 21.626 13.1664L21.2171 12.1997C20.2695 9.93762 18.3548 8.21046 15.9923 7.48866L12.8315 6.52197C12.1111 6.30285 11.3582 6.18685 10.5988 6.18685C8.58678 6.18685 6.65264 6.97954 5.23125 8.39735L3.72548 9.88606C2.91418 10.6916 2.91418 11.9999 3.72548 12.8055C4.53678 13.6111 5.85433 13.6111 6.66563 12.8055L8.1649 11.3168L8.15841 11.3103ZM5.91923 22.6851H2.07692C0.928125 22.6851 0 23.6067 0 24.7474C0 25.8881 0.928125 26.8097 2.07692 26.8097H6.59423C7.8274 26.8097 8.94375 26.0879 9.44351 24.9729L10.1899 23.3038L9.57332 22.9171C8.4375 22.2146 7.59375 21.1899 7.11346 20.0235L5.91923 22.6851Z" fill="#F2F2F2"/>
</svg>
