<svg width="121" height="31" viewBox="0 0 121 31" fill="none" xmlns="http://www.w3.org/2000/svg">
<g id="Group 15">
<path id="Primary" d="M69.4983 5.79182C70.2663 5.79182 71.0029 5.48671 71.546 4.94362C72.0891 4.40054 72.3942 3.66395 72.3942 2.89591C72.3942 2.12787 72.0891 1.39128 71.546 0.848192C71.0029 0.305104 70.2663 0 69.4983 0C68.7302 0 67.9937 0.305104 67.4506 0.848192C66.9075 1.39128 66.6024 2.12787 66.6024 2.89591C66.6024 3.66395 66.9075 4.40054 67.4506 4.94362C67.9937 5.48671 68.7302 5.79182 69.4983 5.79182ZM71.1393 9.65303L67.4108 6.70885C66.3671 5.88835 64.895 5.87628 63.8452 6.69075L58.8317 10.564C56.9795 11.9999 57.1122 14.8355 59.0911 16.0904L62.7412 18.4071V25.0979C62.7412 26.1657 63.6039 27.0285 64.6718 27.0285C65.7396 27.0285 66.6024 26.1657 66.6024 25.0979V17.3754C66.6024 16.7299 66.2826 16.1266 65.7457 15.7706L63.1635 14.0512L66.8015 11.1251L69.257 13.0919C69.6008 13.3634 70.0232 13.5142 70.4636 13.5142H74.3248C75.3927 13.5142 76.2554 12.6515 76.2554 11.5836C76.2554 10.5158 75.3927 9.65303 74.3248 9.65303H71.1393ZM48.7443 23.1673C48.7443 22.0152 49.2019 20.9103 50.0166 20.0957C50.8312 19.2811 51.9361 18.8234 53.0881 18.8234C54.2402 18.8234 55.3451 19.2811 56.1597 20.0957C56.9743 20.9103 57.432 22.0152 57.432 23.1673C57.432 24.3193 56.9743 25.4242 56.1597 26.2388C55.3451 27.0535 54.2402 27.5111 53.0881 27.5111C51.9361 27.5111 50.8312 27.0535 50.0166 26.2388C49.2019 25.4242 48.7443 24.3193 48.7443 23.1673ZM60.8106 23.1673C60.8106 21.1191 59.997 19.1549 58.5487 17.7067C57.1005 16.2585 55.1363 15.4448 53.0881 15.4448C51.04 15.4448 49.0758 16.2585 47.6276 17.7067C46.1793 19.1549 45.3657 21.1191 45.3657 23.1673C45.3657 25.2154 46.1793 27.1796 47.6276 28.6278C49.0758 30.0761 51.04 30.8897 53.0881 30.8897C55.1363 30.8897 57.1005 30.0761 58.5487 28.6278C59.997 27.1796 60.8106 25.2154 60.8106 23.1673ZM71.9115 23.1673C71.9115 22.0152 72.3692 20.9103 73.1838 20.0957C73.9985 19.2811 75.1033 18.8234 76.2554 18.8234C77.4075 18.8234 78.5123 19.2811 79.327 20.0957C80.1416 20.9103 80.5993 22.0152 80.5993 23.1673C80.5993 24.3193 80.1416 25.4242 79.327 26.2388C78.5123 27.0535 77.4075 27.5111 76.2554 27.5111C75.1033 27.5111 73.9985 27.0535 73.1838 26.2388C72.3692 25.4242 71.9115 24.3193 71.9115 23.1673ZM83.9778 23.1673C83.9778 21.1191 83.1642 19.1549 81.716 17.7067C80.2677 16.2585 78.3035 15.4448 76.2554 15.4448C74.2073 15.4448 72.2431 16.2585 70.7948 17.7067C69.3466 19.1549 68.533 21.1191 68.533 23.1673C68.533 25.2154 69.3466 27.1796 70.7948 28.6278C72.2431 30.0761 74.2073 30.8897 76.2554 30.8897C78.3035 30.8897 80.2677 30.0761 81.716 28.6278C83.1642 27.1796 83.9778 25.2154 83.9778 23.1673Z" fill="#0F0F0F"/>
<path id="Primary_2" d="M114.867 2.89591C114.867 2.12787 114.562 1.39128 114.019 0.848192C113.476 0.305104 112.739 0 111.971 0C111.203 0 110.467 0.305104 109.924 0.848192C109.381 1.39128 109.076 2.12787 109.076 2.89591C109.076 3.66395 109.381 4.40054 109.924 4.94362C110.467 5.48671 111.203 5.79182 111.971 5.79182C112.739 5.79182 113.476 5.48671 114.019 4.94362C114.562 4.40054 114.867 3.66395 114.867 2.89591ZM103.145 10.5882C103.742 9.99088 104.557 9.65303 105.407 9.65303C105.522 9.65303 105.637 9.65906 105.745 9.67113L103.863 15.3242C103.302 17.0135 103.965 18.8717 105.48 19.8189L110.68 23.0707L109.148 28.4282C108.852 29.4538 109.45 30.5217 110.475 30.8173C111.501 31.1129 112.569 30.5156 112.864 29.49L114.596 23.4327C114.952 22.1899 114.439 20.8626 113.347 20.1809L109.92 18.0391L111.784 13.0678L112.092 13.8099C112.997 15.9697 115.103 17.3754 117.443 17.3754H118.729C119.796 17.3754 120.659 16.5127 120.659 15.4448C120.659 14.377 119.796 13.5142 118.729 13.5142H117.443C116.665 13.5142 115.959 13.0437 115.664 12.3257L115.284 11.4207C114.403 9.3031 112.623 7.68622 110.427 7.01051L107.489 6.10554C106.819 5.90041 106.119 5.79182 105.413 5.79182C103.543 5.79182 101.745 6.53389 100.424 7.86118L99.0243 9.25484C98.2702 10.009 98.2702 11.2337 99.0243 11.9879C99.7784 12.742 101.003 12.742 101.757 11.9879L103.151 10.5942L103.145 10.5882ZM101.064 21.2367H97.4919C96.424 21.2367 95.5613 22.0994 95.5613 23.1673C95.5613 24.2351 96.424 25.0979 97.4919 25.0979H101.691C102.837 25.0979 103.875 24.4222 104.339 23.3784L105.033 21.8158L104.46 21.4538C103.404 20.7962 102.62 19.837 102.174 18.745L101.064 21.2367Z" fill="#0F0F0F"/>
<path id="Primary_3" d="M16.0746 10.7632L7.72469 17.9245C7.82122 17.9788 7.91775 18.0452 8.01428 18.1055C9.10025 18.8536 10.4336 19.3302 11.5859 19.3302C12.7684 19.3302 14.0474 18.8657 15.1575 18.1055C16.4908 17.1704 18.2706 17.1704 19.6039 18.1055C20.6356 18.8174 21.8965 19.3302 23.1756 19.3302C23.7849 19.3302 24.4486 19.1975 25.1001 18.9562C24.9071 11.6561 18.9282 5.79187 11.5799 5.79187L7.71866 5.79187C6.65079 5.79187 5.78805 6.65461 5.78805 7.72247C5.78805 8.79034 6.65079 9.65308 7.71866 9.65308L11.5799 9.65308C13.2028 9.65308 14.7352 10.0513 16.0746 10.7632ZM25.0941 9.65308C25.0941 10.6771 25.5009 11.6592 26.225 12.3834C26.9491 13.1075 27.9313 13.5143 28.9553 13.5143C29.9794 13.5143 30.9615 13.1075 31.6856 12.3834C32.4097 11.6593 32.8165 10.6771 32.8165 9.65308C32.8165 8.62902 32.4097 7.64691 31.6856 6.92279C30.9615 6.19867 29.9794 5.79187 28.9553 5.79187C27.9313 5.79187 26.9491 6.19867 26.225 6.92279C25.5009 7.64691 25.0941 8.62902 25.0941 9.65308ZM16.2556 19.6621C14.8981 20.5972 13.239 21.2367 11.5799 21.2367C9.95695 21.2367 8.23751 20.5851 6.91022 19.6621C6.19227 19.1492 5.2149 19.1915 4.54522 19.7646C3.67645 20.4826 2.58446 21.0316 1.49246 21.285C0.454756 21.5263 -0.19079 22.564 0.0505394 23.6017C0.291865 24.6394 1.32956 25.2849 2.36726 25.0436C3.84538 24.6997 5.07614 24.0482 5.87855 23.5353C7.62816 24.4765 9.58893 25.0979 11.5799 25.0979C13.5044 25.0979 15.236 24.5006 16.4305 23.9577C16.7804 23.7948 17.1002 23.6379 17.3717 23.4931C17.6432 23.6379 17.9569 23.8008 18.3129 23.9577C19.5074 24.5006 21.2389 25.0979 23.1635 25.0979C25.1544 25.0979 27.1152 24.4765 28.8648 23.5414C29.6733 24.0482 30.898 24.7058 32.3761 25.0497C33.4138 25.291 34.4515 24.6454 34.6928 23.6077C34.9342 22.57 34.2886 21.5323 33.2509 21.291C32.1589 21.0376 31.0669 20.4886 30.1981 19.7707C29.5285 19.2035 28.5511 19.1613 27.8332 19.6681C26.4998 20.5851 24.7864 21.2367 23.1635 21.2367C21.5044 21.2367 19.8453 20.5972 18.4878 19.6621C17.8181 19.1854 16.9252 19.1854 16.2556 19.6621Z" fill="#0F0F0F"/>
</g>
</svg>
