<svg width="14" height="12" viewBox="0 0 14 12" fill="none" xmlns="http://www.w3.org/2000/svg">
<rect width="14" height="12" fill="#B0B0B0"/>
<path d="M-3416 -5298C-3416 -5299.1 -3415.1 -5300 -3414 -5300H3336C3337.1 -5300 3338 -5299.1 3338 -5298V1179C3338 1180.1 3337.1 1181 3336 1181H-3414C-3415.1 1181 -3416 1180.1 -3416 1179V-5298Z" fill="#D9D9D9"/>
<path d="M-3414 -5299H3336V-5301H-3414V-5299ZM3337 -5298V1179H3339V-5298H3337ZM3336 1180H-3414V1182H3336V1180ZM-3415 1179V-5298H-3417V1179H-3415ZM-3414 1180C-3414.55 1180 -3415 1179.55 -3415 1179H-3417C-3417 1180.66 -3415.66 1182 -3414 1182V1180ZM3337 1179C3337 1179.55 3336.55 1180 3336 1180V1182C3337.66 1182 3339 1180.66 3339 1179H3337ZM3336 -5299C3336.55 -5299 3337 -5298.55 3337 -5298H3339C3339 -5299.66 3337.66 -5301 3336 -5301V-5299ZM-3414 -5301C-3415.66 -5301 -3417 -5299.66 -3417 -5298H-3415C-3415 -5298.55 -3414.55 -5299 -3414 -5299V-5301Z" fill="black" fill-opacity="0.1"/>
<rect width="1440" height="5143" transform="translate(-785 -4631)" fill="#F2F2F2"/>
<rect x="-277" y="-490" width="424" height="611" rx="20" fill="#0F0F0F"/>
<rect x="-222" y="-24" width="313" height="60" rx="30" fill="#FFBD00"/>
<path d="M13.7063 6.70859C14.0969 6.31797 14.0969 5.68359 13.7063 5.29297L8.70625 0.292969C8.31563 -0.0976562 7.68125 -0.0976562 7.29063 0.292969C6.9 0.683594 6.9 1.31797 7.29063 1.70859L10.5875 5.00234H1C0.446875 5.00234 0 5.44922 0 6.00234C0 6.55547 0.446875 7.00234 1 7.00234H10.5844L7.29375 10.2961C6.90312 10.6867 6.90312 11.3211 7.29375 11.7117C7.68437 12.1023 8.31875 12.1023 8.70938 11.7117L13.7094 6.71172L13.7063 6.70859Z" fill="#0F0F0F"/>
</svg>
