<svg width="31" height="31" viewBox="0 0 31 31" fill="none" xmlns="http://www.w3.org/2000/svg">
<g id="facebook logo" clip-path="url(#clip0_11_154)">
<path id="Vector" d="M27.6083 31H21.3116V20.3454H24.2113C24.8549 18.7356 25.4947 17.1334 26.1527 15.4871H21.3191C21.3191 14.1275 21.3176 12.7975 21.3222 11.4675C21.3222 11.3697 21.3532 11.2673 21.3919 11.1763C21.5685 10.7532 21.9491 10.6751 22.3395 10.6668C23.1363 10.6493 23.933 10.6592 24.7306 10.6584C24.8776 10.6584 25.0239 10.6584 25.1634 10.6584V5.86381C23.6472 5.86381 22.15 5.78268 20.6649 5.88201C18.0313 6.05793 15.754 8.34794 15.5637 10.986C15.4644 12.3615 15.5152 13.7476 15.4985 15.1292C15.497 15.246 15.4985 15.3635 15.4985 15.5129H11.639V20.35H15.5V31.0008H3.3902C3.34395 30.9826 3.29999 30.9545 3.25223 30.9469C2.01653 30.7354 1.07953 30.0825 0.488971 28.986C0.260784 28.5614 0.1592 28.07 0 27.6098C0 19.5371 0 11.4645 0 3.39182C0.0197105 3.33571 0.0477599 3.28035 0.0583733 3.22272C0.388902 1.3528 1.96119 0.0053407 3.8496 0.00382414C11.6155 -0.000725542 19.3822 -0.00148382 27.1481 0.00382414C29.2768 0.0053407 30.9932 1.72209 30.9947 3.85134C31.0008 11.6176 31.003 19.3839 30.9909 27.151C30.9886 28.5917 30.3344 29.717 29.0911 30.4435C28.6416 30.7058 28.1048 30.8188 27.6075 31H27.6083Z" fill="#F2F2F1"/>
</g>
<defs>
<clipPath id="clip0_11_154">
<rect width="31" height="31" fill="white"/>
</clipPath>
</defs>
</svg>
