<svg width="31" height="31" viewBox="0 0 31 31" fill="none" xmlns="http://www.w3.org/2000/svg">
<g id="tapa_delantera_-_tiro" clip-path="url(#clip0_11_143)">
<path id="Vector" d="M20.5077 31H10.561C10.2803 30.9788 9.99896 30.9642 9.71883 30.9357C8.75631 30.8374 7.77495 30.8223 6.83552 30.6172C3.40167 29.8681 1.24997 27.7571 0.407161 24.3444C0.0310241 22.8237 0.0328471 21.2629 0.0194787 19.7119C-0.00543503 16.9167 -0.00725799 14.1203 0.0200864 11.3251C0.0358853 9.7237 0.0474307 8.11562 0.436328 6.54454C1.03244 4.13333 2.38385 2.29474 4.60543 1.1416C6.15495 0.33726 7.84057 0.0885559 9.56023 0.0648988C12.4405 0.0254701 15.3208 0.00545252 18.2017 0.00120636C20.1 -0.00182661 22.0037 -0.0224508 23.8844 0.302077C27.6233 0.947493 30.2307 3.55646 30.8135 7.46414C30.8876 7.96033 30.9387 8.45956 31 8.95757V21.7955C30.9387 22.3445 30.8913 22.8953 30.8129 23.4418C30.5923 24.9711 30.0849 26.3905 29.1279 27.6237C27.4574 29.7753 25.1647 30.6761 22.5294 30.8744C21.8561 30.9254 21.1816 30.9587 20.5083 31H20.5077ZM15.5359 28.257C15.5359 28.2388 15.5365 28.2206 15.5371 28.203C16.6588 28.203 17.7812 28.2248 18.9023 28.1975C20.4554 28.1593 22.0189 28.223 23.5533 27.9124C25.7688 27.4635 27.232 26.1739 27.8536 23.9768C28.1447 22.9475 28.189 21.8865 28.2042 20.8304C28.2419 18.2372 28.2759 15.6435 28.2498 13.0503C28.2322 11.3275 28.1817 9.59874 28.0152 7.88572C27.7795 5.46723 26.233 3.78211 23.8668 3.18219C22.5913 2.85827 21.2825 2.86251 19.9821 2.84795C17.4154 2.81884 14.8474 2.82854 12.2807 2.83582C10.7458 2.84007 9.20475 2.81338 7.68684 3.08452C5.32368 3.50732 3.78024 4.85032 3.18109 7.20573C2.90279 8.30002 2.87301 9.42404 2.86572 10.5408C2.84324 13.8607 2.83959 17.1812 2.86876 20.5011C2.87727 21.4856 2.95809 22.4779 3.11365 23.4497C3.36764 25.0347 4.15273 26.3213 5.54912 27.1772C6.56329 27.799 7.70142 28.0441 8.86994 28.0877C11.0915 28.1708 13.3143 28.2042 15.5365 28.2576L15.5359 28.257Z" fill="#F2F2F1"/>
<path id="Vector_2" d="M23.5192 15.5046C23.5125 19.8915 19.9207 23.4765 15.5334 23.4765C11.1328 23.4765 7.52455 19.866 7.54156 15.4797C7.55797 11.0941 11.1693 7.50424 15.5437 7.52425C19.948 7.54427 23.5259 11.125 23.5192 15.5046ZM15.531 20.6528C18.3924 20.6528 20.6918 18.3617 20.6948 15.507C20.6978 12.6518 18.3997 10.3479 15.5456 10.3443C12.6689 10.3407 10.3684 12.6354 10.3696 15.5076C10.3708 18.3635 12.6677 20.6534 15.531 20.6534V20.6528Z" fill="#F2F2F1"/>
<path id="Vector_3" d="M23.8218 9.07706C22.7821 9.07706 21.9636 8.25876 21.9636 7.21906C21.9636 6.18482 22.7943 5.35318 23.8242 5.35621C24.8542 5.35924 25.6897 6.19513 25.6897 7.22209C25.6897 8.2527 24.8591 9.07706 23.8212 9.07706H23.8218Z" fill="#F2F2F1"/>
</g>
<defs>
<clipPath id="clip0_11_143">
<rect width="31" height="31" fill="white"/>
</clipPath>
</defs>
</svg>
