<svg width="25" height="25" viewBox="0 0 25 25" fill="none" xmlns="http://www.w3.org/2000/svg">
<g id="Whatsapp logo">
<path id="Vector" d="M12.518 24.7879C10.6493 24.774 8.88505 24.3942 7.20731 23.623C7.13148 23.5883 7.02824 23.5765 6.94692 23.5943C4.91135 24.0388 2.8773 24.4884 0.84294 24.9373C0.75919 24.9557 0.676354 24.9796 0.591995 24.9941C0.461346 25.0167 0.41536 24.9754 0.436069 24.851C0.518905 24.3573 0.6057 23.8643 0.689145 23.3706C0.817358 22.6149 0.944049 21.8588 1.07165 21.1028C1.20839 20.2924 1.33874 19.4811 1.48583 18.6729C1.52542 18.4552 1.50532 18.2722 1.39904 18.0726C0.797867 16.9428 0.403482 15.7429 0.18482 14.4839C0.00635649 13.4579 -0.0457206 12.4262 0.0410745 11.3912C0.232633 9.1059 0.987599 7.01775 2.35074 5.16058C4.17709 2.67267 6.60309 1.05462 9.62113 0.325763C10.4379 0.128301 11.2712 0.0337964 12.1141 0.00692454C14.2368 -0.060406 16.2553 0.361995 18.1353 1.33029C21.6028 3.1159 23.8007 5.90755 24.708 9.68108C24.9029 10.4924 24.9863 11.3203 24.9985 12.1569C25.0408 15.0397 24.1933 17.6385 22.4287 19.9238C20.659 22.216 18.3466 23.7178 15.5171 24.4237C14.5261 24.671 13.5175 24.7803 12.518 24.7882V24.7879ZM2.95191 22.3483C2.99881 22.3483 3.02439 22.3531 3.04754 22.3477C4.4323 22.0231 5.81737 21.6994 7.20091 21.3694C7.34314 21.3356 7.45886 21.3486 7.58769 21.4177C8.8622 22.1043 10.2272 22.4971 11.6698 22.6221C12.6599 22.7079 13.6454 22.6466 14.6154 22.437C17.2232 21.8733 19.3233 20.5207 20.8954 18.383C22.0301 16.8399 22.6693 15.108 22.8195 13.2004C22.8941 12.2532 22.8521 11.3121 22.6575 10.3831C22.1574 7.99691 20.9621 6.01564 19.0663 4.46463C17.3602 3.0688 15.3886 2.3028 13.184 2.14852C12.1181 2.07394 11.0601 2.16694 10.0213 2.42871C7.89649 2.96373 6.11065 4.04887 4.67807 5.69318C3.09961 7.50507 2.27004 9.61919 2.15979 12.0053C2.10375 13.2185 2.28526 14.4057 2.6629 15.5624C2.91476 16.3338 3.2592 17.0627 3.68008 17.7571C3.71936 17.822 3.76443 17.9081 3.75286 17.9751C3.60364 18.8178 3.44375 19.6584 3.28843 20.5002C3.17605 21.1101 3.06672 21.7206 2.95282 22.348L2.95191 22.3483Z" fill="#F2F2F1"/>
<path id="Vector_2" d="M8.33226 6.40662C8.52443 6.4196 8.7169 6.42715 8.90815 6.44677C9.15849 6.47244 9.3065 6.6382 9.39877 6.84864C9.53978 7.1699 9.66738 7.49749 9.79407 7.82478C9.99294 8.33927 10.183 8.85708 10.3828 9.37127C10.4549 9.55696 10.4449 9.72664 10.3557 9.90599C10.1565 10.3067 9.83976 10.6122 9.53643 10.928C9.29036 11.1844 9.26325 11.3121 9.43776 11.6207C10.3974 13.3145 11.7301 14.6089 13.543 15.3903C13.9066 15.547 14.0747 15.5231 14.3342 15.2314C14.6394 14.8888 14.94 14.5418 15.2345 14.1898C15.4781 13.8984 15.6355 13.838 15.9842 14.0077C16.674 14.3435 17.3532 14.7006 18.0369 15.0491C18.1447 15.104 18.2519 15.1605 18.3591 15.2173C18.7063 15.4002 18.7605 15.4866 18.7139 15.8764C18.6874 16.0992 18.6341 16.3196 18.5869 16.5397C18.441 17.2178 17.9589 17.6125 17.3934 17.9446C16.565 18.431 15.6852 18.4763 14.7843 18.2326C13.3314 17.8398 11.9454 17.293 10.7324 16.3803C9.5946 15.524 8.64746 14.4881 7.84012 13.3266C7.38086 12.6662 6.91461 12.0077 6.59423 11.2632C6.33567 10.6626 6.15416 10.0428 6.16147 9.38607C6.17335 8.31331 6.59849 7.4205 7.40492 6.70704C7.66835 6.47395 7.97899 6.37521 8.33226 6.40662Z" fill="#F2F2F1"/>
</g>
</svg>
