<svg width="14" height="12" viewBox="0 0 14 12" fill="none" xmlns="http://www.w3.org/2000/svg">
<rect width="14" height="12" fill="#B0B0B0"/>
<path d="M-3860 -5298C-3860 -5299.1 -3859.1 -5300 -3858 -5300H2892C2893.1 -5300 2894 -5299.1 2894 -5298V1179C2894 1180.1 2893.1 1181 2892 1181H-3858C-3859.1 1181 -3860 1180.1 -3860 1179V-5298Z" fill="#D9D9D9"/>
<path d="M-3858 -5299H2892V-5301H-3858V-5299ZM2893 -5298V1179H2895V-5298H2893ZM2892 1180H-3858V1182H2892V1180ZM-3859 1179V-5298H-3861V1179H-3859ZM-3858 1180C-3858.55 1180 -3859 1179.55 -3859 1179H-3861C-3861 1180.66 -3859.66 1182 -3858 1182V1180ZM2893 1179C2893 1179.55 2892.55 1180 2892 1180V1182C2893.66 1182 2895 1180.66 2895 1179H2893ZM2892 -5299C2892.55 -5299 2893 -5298.55 2893 -5298H2895C2895 -5299.66 2893.66 -5301 2892 -5301V-5299ZM-3858 -5301C-3859.66 -5301 -3861 -5299.66 -3861 -5298H-3859C-3859 -5298.55 -3858.55 -5299 -3858 -5299V-5301Z" fill="black" fill-opacity="0.1"/>
<rect width="1440" height="5143" transform="translate(-1229 -4631)" fill="#F2F2F2"/>
<rect x="-276.25" y="-489.25" width="422.5" height="609.5" rx="19.25" fill="#FFBD00" stroke="black" stroke-width="1.5"/>
<rect x="-222" y="-24" width="313" height="60" rx="30" fill="#0F0F0F"/>
<path d="M13.7063 6.70859C14.0969 6.31797 14.0969 5.68359 13.7063 5.29297L8.70625 0.292969C8.31563 -0.0976562 7.68125 -0.0976562 7.29063 0.292969C6.9 0.683594 6.9 1.31797 7.29063 1.70859L10.5875 5.00234H1C0.446875 5.00234 0 5.44922 0 6.00234C0 6.55547 0.446875 7.00234 1 7.00234H10.5844L7.29375 10.2961C6.90312 10.6867 6.90312 11.3211 7.29375 11.7117C7.68437 12.1023 8.31875 12.1023 8.70938 11.7117L13.7094 6.71172L13.7063 6.70859Z" fill="#FFBD00"/>
</svg>
